<?xml version="1.0" encoding="utf-8"?>
<!-- Generator: Adobe Illustrator 24.0.1, SVG Export Plug-In . SVG Version: 6.00 Build 0)  -->
<svg version="1.1" xmlns="http://www.w3.org/2000/svg" xmlns:xlink="http://www.w3.org/1999/xlink" x="0px" y="0px"
	 viewBox="0 0 5026.8 2783" style="enable-background:new 0 0 5026.8 2783;" xml:space="preserve">
<style type="text/css">
	.st0{opacity:0.3;fill:url(#SVGID_1_);}
	.st1{fill:url(#SVGID_2_);}
	.st2{fill:#FFFFFF;}
	.st3{fill:url(#SVGID_3_);}
	.st4{fill:url(#SVGID_4_);}
	.st5{fill:url(#SVGID_5_);}
	.st6{opacity:0.5;fill:#FFFFFF;}
	.st7{fill:url(#SVGID_6_);}
	.st8{fill:url(#SVGID_7_);}
	.st9{fill:url(#SVGID_8_);}
	.st10{fill:url(#SVGID_9_);}
	.st11{fill:url(#SVGID_10_);}
	.st12{fill:url(#SVGID_11_);}
	.st13{fill:url(#SVGID_12_);}
	.st14{fill:url(#SVGID_13_);}
	.st15{fill:url(#SVGID_14_);}
	.st16{fill:url(#SVGID_15_);}
	.st17{fill:url(#SVGID_16_);}
	.st18{fill:url(#SVGID_17_);}
	.st19{fill:url(#SVGID_18_);}
	.st20{fill:url(#SVGID_19_);}
	.st21{fill:url(#SVGID_20_);}
	.st22{fill:url(#SVGID_21_);}
	.st23{fill:url(#SVGID_22_);}
	.st24{fill:url(#SVGID_23_);}
	.st25{fill:url(#SVGID_24_);}
	.st26{fill:url(#SVGID_25_);}
	.st27{fill:url(#SVGID_26_);}
	.st28{fill:url(#SVGID_27_);}
	.st29{fill:url(#SVGID_28_);}
	.st30{fill:url(#SVGID_29_);}
	.st31{fill:url(#SVGID_30_);}
	.st32{fill:url(#SVGID_31_);}
	.st33{fill:url(#SVGID_32_);}
	.st34{fill:url(#SVGID_33_);}
	.st35{fill:url(#SVGID_34_);}
	.st36{fill:url(#SVGID_35_);}
	.st37{fill:url(#SVGID_36_);}
	.st38{fill:url(#SVGID_37_);}
	.st39{fill:url(#SVGID_38_);}
	.st40{fill:url(#SVGID_39_);}
	.st41{fill:url(#SVGID_40_);}
	.st42{opacity:0.78;fill:#FFFFFF;}
	.st43{fill:url(#SVGID_41_);}
	.st44{fill:url(#SVGID_42_);}
	.st45{fill:url(#SVGID_43_);}
	.st46{fill:url(#SVGID_44_);}
	.st47{fill:url(#SVGID_45_);}
	.st48{fill:url(#SVGID_46_);}
	.st49{fill:url(#SVGID_47_);}
	.st50{fill:url(#SVGID_48_);}
	.st51{fill:url(#SVGID_49_);}
	.st52{fill:url(#SVGID_50_);}
	.st53{fill:url(#SVGID_51_);}
	.st54{fill:url(#SVGID_52_);}
	.st55{fill:url(#SVGID_53_);}
	.st56{fill:url(#SVGID_54_);}
	.st57{fill:url(#SVGID_55_);}
	.st58{fill:url(#SVGID_56_);}
	.st59{fill:url(#SVGID_57_);}
	.st60{fill:url(#SVGID_58_);}
	.st61{fill:url(#SVGID_59_);}
	.st62{fill:url(#SVGID_60_);}
	.st63{fill:url(#SVGID_61_);}
	.st64{fill:url(#SVGID_62_);}
	.st65{fill:url(#SVGID_63_);}
	.st66{fill:url(#SVGID_64_);}
	.st67{fill:url(#SVGID_65_);}
	.st68{fill:url(#SVGID_66_);}
	.st69{fill:url(#SVGID_67_);}
	.st70{fill:url(#SVGID_68_);}
	.st71{fill:url(#SVGID_69_);}
	.st72{fill:url(#SVGID_70_);}
	.st73{fill:url(#SVGID_71_);}
	.st74{fill:url(#SVGID_72_);}
	.st75{fill:url(#SVGID_73_);}
	.st76{fill:url(#SVGID_74_);}
	.st77{fill:url(#SVGID_75_);}
	.st78{fill:url(#SVGID_76_);}
	.st79{fill:url(#SVGID_77_);}
	.st80{fill:url(#SVGID_78_);}
	.st81{fill:url(#SVGID_79_);}
	.st82{fill:url(#SVGID_80_);}
	.st83{fill:url(#SVGID_81_);}
	.st84{fill:url(#SVGID_82_);}
	.st85{fill:url(#SVGID_83_);}
	.st86{fill:url(#SVGID_84_);}
	.st87{fill:url(#SVGID_85_);}
	.st88{fill:url(#SVGID_86_);}
	.st89{fill:url(#SVGID_87_);}
	.st90{fill:url(#SVGID_88_);}
	.st91{fill:url(#SVGID_89_);}
	.st92{fill:url(#SVGID_90_);}
	.st93{fill:url(#SVGID_91_);}
	.st94{fill:url(#SVGID_92_);}
</style>
<g id="Background">
</g>
<g id="Illustration">
	<g>
		<linearGradient id="SVGID_1_" gradientUnits="userSpaceOnUse" x1="4265.0415" y1="3600.8367" x2="1779.4812" y2="513.9266">
			<stop  offset="0" style="stop-color:#B37CFF"/>
			<stop  offset="1" style="stop-color:#F895E7"/>
		</linearGradient>
		<path class="st0" d="M3581.2,2383.5c-57.1,60.1-111.1,98.9-153.8,129.5c-501.7,360-1095.3,255-1221.5,229.4
			c-186.3-37.8-546.4-111-806.8-417.2c-393.9-463.2-332.6-1193-27-1674.8c55.9-88.1,351.1-577.2,951.1-655.7
			c363.1-47.5,786.4,48.3,1093,305.1C4059.7,838.9,4013.9,1928,3581.2,2383.5z"/>
		<g>
			
				<linearGradient id="SVGID_2_" gradientUnits="userSpaceOnUse" x1="7218.9551" y1="1136.7941" x2="8556.4512" y2="1136.7941" gradientTransform="matrix(0.9971 7.580000e-02 -7.580000e-02 0.9971 -6039.3818 -668.5585)">
				<stop  offset="0" style="stop-color:#A737D5"/>
				<stop  offset="1" style="stop-color:#EF497A"/>
			</linearGradient>
			<path class="st1" d="M1133.3,244.6c-7.5-12.4,8.4-27.4,23-21.9c148.3,56.7,523.1,249.1,615.7,769.4
				c116.2,652.8,341.3,831.3,574.2,908.8c0,0-278.7,18.9-516.3-159.1C1246.7,1304.7,1267.3,464.5,1133.3,244.6z"/>
			<path class="st2" d="M1286.3,410.3c37.4,64.7,73.3,130.1,106.3,196.8c33.4,66.5,64.5,134,93,202.5
				c28.2,68.6,54.9,137.8,78.2,208.1c23.6,70.2,43.7,141.5,63.6,213.2c20.3,71.5,40.4,143.7,69,213.6
				c28.5,69.8,67.1,137,119.1,194.8c13,14.4,26.3,28.6,40.5,41.9c13.9,13.6,28.6,26.5,43.5,39.2c30.1,25.3,62.2,48.7,96.4,69.7
				c68.5,41.9,145.1,73.8,225.2,95.9c8.4,2.3,18-2.1,21.3-9.8c3.3-7.6-0.6-15.6-8.7-18.1l-0.1,0c-19.3-5.9-38.4-11.9-57.1-18.8
				c-9.4-3.3-18.6-6.9-27.9-10.4c-9.1-3.8-18.4-7.3-27.3-11.4c-36.1-15.7-70.7-33.8-103.3-54.1c-65.5-40.4-123.7-90.2-173.5-145.4
				c-24.5-27.9-46.5-57.5-65.7-88.7c-19.2-31.2-35.5-64-49.7-97.8c-28.4-67.7-48.9-138.9-69.8-210.2c-21-71.3-42.8-142.8-67.9-213.1
				c-12.4-35.2-25.6-70.1-39.5-104.8c-6.8-17.4-14-34.6-21.2-51.8c-7.4-17.2-14.9-34.3-22.5-51.3c-30.7-68.1-63.8-135.1-99.4-201
				c-35.9-65.7-73.9-130.3-114.8-193.3c-1.2-1.8-3.8-2.3-6-1.1C1286.1,406.2,1285.3,408.5,1286.3,410.3z"/>
		</g>
		<g>
			<g>
				
					<linearGradient id="SVGID_3_" gradientUnits="userSpaceOnUse" x1="-1378.6445" y1="3858.051" x2="-84.0416" y2="3858.051" gradientTransform="matrix(0.2723 -0.9623 0.9623 0.2723 -1733.1166 -914.326)">
					<stop  offset="0" style="stop-color:#CE1567"/>
					<stop  offset="1" style="stop-color:#7A1DBC"/>
				</linearGradient>
				<path class="st3" d="M1966,1535.2c-7.6,20.9-34.1,27.3-50.5,12.3c-90.8-82.6-326.4-339.5-302.7-762.6
					c20-357.3-3.1-553-19.8-641.1c-3.5-18.6,18.8-30.9,32.7-18C1778.9,268,2241.4,777.5,1966,1535.2z"/>
				<path class="st2" d="M1935.9,1535.4c-0.5,0.3-1,0.6-1.5,0.8c-4.4,1.8-9.5-0.3-11.3-4.7c-2.1-5-207.6-508.4-202.3-1006.5
					c0.1-4.8,4-8.6,8.8-8.6c4.8,0.1,8.6,4,8.6,8.8c-5.3,494.5,198.9,994.7,201,999.7C1940.7,1528.7,1939.3,1533.1,1935.9,1535.4z"/>
			</g>
		</g>
		<g>
			<linearGradient id="SVGID_4_" gradientUnits="userSpaceOnUse" x1="1816.5505" y1="1383.6693" x2="3519.2332" y2="1383.6693">
				<stop  offset="0" style="stop-color:#2B3582"/>
				<stop  offset="1" style="stop-color:#150E42"/>
			</linearGradient>
			<path class="st4" d="M1844.4,191.4c-9,423-38,1882.2-24.2,2399.3c1.5,54.8,39,98.8,85.8,100.5c231.6,8.9,1080.6,31.3,1459.5,12.7
				c78.9-3.9,141.6-78.6,143.3-171c7.9-444,25.2-1692.9-16-2265c-4.9-68.5-50.9-123.1-109.4-130
				c-252.2-29.5-1104.9-101.7-1432.2-76.8C1892.1,65.7,1845.9,122.3,1844.4,191.4z"/>
			<linearGradient id="SVGID_5_" gradientUnits="userSpaceOnUse" x1="3107.4028" y1="706.8101" x2="-399.4692" y2="5192.9639">
				<stop  offset="0" style="stop-color:#53D8FF"/>
				<stop  offset="1" style="stop-color:#3840F7"/>
			</linearGradient>
			<path class="st5" d="M1947.7,321.2c-12.5,341.5-51.8,1477.4-39.3,1897.4c1.8,61.4,43.2,111,95.6,114.6
				c215.8,14.8,952.2,47.4,1268.8,17.7c57-5.3,101.7-59.3,104.8-126.1c16-348.3,62.1-1406.1,50.1-1821.4
				c-1.9-66.3-45.8-120.4-102.2-126.3c-233.5-24.5-1016-82.9-1285-65.7C1990.1,214.7,1949.9,262.1,1947.7,321.2z"/>
			<path class="st6" d="M2416.8,135.1L2416.8,135.1c0,13,8.6,23.7,19.7,24.4c54.7,3.4,208.8,12.8,277.7,17.5
				c13.6,0.9,24.2-13.4,21.7-29l-0.4-2.7c-1.8-10.7-9.3-18.7-18.6-19.7c-46.6-5-187-18.8-280.1-14.9
				C2425.6,111.2,2416.8,122.1,2416.8,135.1z"/>
		</g>
		<g>
			<g>
				<path class="st2" d="M3347.1,577l-8.6,287.7c-0.7,23.4-15.6,42-33.2,41.5l-1048-31.4c-14.6-0.4-27.8,12.4-31.9,31.2l-21.8,99.6
					c-2.9,13.2-16.8,13.9-20.1,1l-21.7-85.3c-4.2-16.6-15.8-27.8-29-28.2l-45-1.4c-17.6-0.5-31.3-20-30.6-43.4l8.9-295.7
					c0.7-23.3,15.4-41.8,32.9-41.5l1217.3,22.6C3333.9,533.9,3347.8,553.4,3347.1,577z"/>
				<g>
					
						<linearGradient id="SVGID_6_" gradientUnits="userSpaceOnUse" x1="700.0513" y1="408.8146" x2="413.5415" y2="832.939" gradientTransform="matrix(-0.9996 -3.000000e-02 -3.000000e-02 0.9996 2812.4299 105.757)">
						<stop  offset="0" style="stop-color:#53D8FF"/>
						<stop  offset="1" style="stop-color:#3840F7"/>
					</linearGradient>
					<path class="st7" d="M2095.7,685.2c-2.2,72.9,53.6,133.6,124.6,135.8c71,2.1,130.3-55.2,132.5-128.1
						c2.2-72.9-53.6-133.7-124.6-135.8C2157.2,555,2097.9,612.4,2095.7,685.2z"/>
					<g>
						<path class="st2" d="M2272.4,637c-0.7,23.7-20.7,48.7-44.4,48c-23.7-0.7-42.1-26.9-41.4-50.6c0.7-23.7,20.4-39.9,44.1-39.2
							C2254.4,595.9,2273.1,613.3,2272.4,637z"/>
						<path class="st2" d="M2172,774.7l104.7,3.1c11,0.3,21-6.5,24.7-16.9l6.2-17.4c4.5-12.8-1.8-26.9-14.4-32
							c-42.2-16.9-86.3-16.2-131.9-2.5c-12.8,3.8-20.2,17.2-17.1,30.1l3.9,16.1C2150.8,766.3,2160.6,774.3,2172,774.7z"/>
					</g>
				</g>
				<g>
					
						<linearGradient id="SVGID_7_" gradientUnits="userSpaceOnUse" x1="2832.8118" y1="659.0818" x2="2773.9917" y2="1620.7815" gradientTransform="matrix(0.9996 3.000000e-02 -3.000000e-02 0.9996 2.4187 21.4987)">
						<stop  offset="0" style="stop-color:#53D8FF"/>
						<stop  offset="1" style="stop-color:#3840F7"/>
					</linearGradient>
					<path class="st8" d="M3208.3,753.1c-0.4,13.8-11.9,24.6-25.7,24.2l-733.8-22c-13.8-0.4-24.6-11.9-24.2-25.7l0,0
						c0.4-13.8,11.9-24.6,25.7-24.2l733.8,22C3197.9,727.8,3208.8,739.3,3208.3,753.1L3208.3,753.1z"/>
					
						<linearGradient id="SVGID_8_" gradientUnits="userSpaceOnUse" x1="2661.3103" y1="735.7364" x2="2617.1653" y2="1457.4995" gradientTransform="matrix(0.9996 3.000000e-02 -3.000000e-02 0.9996 2.4187 21.4987)">
						<stop  offset="0" style="stop-color:#53D8FF"/>
						<stop  offset="1" style="stop-color:#3840F7"/>
					</linearGradient>
					<path class="st9" d="M2862.7,825.4c-0.4,13-11.2,23.2-24.2,22.8l-394-11.8c-13-0.4-23.2-11.2-22.8-24.2l0,0
						c0.4-13,11.2-23.2,24.2-22.8l394,11.8C2852.9,801.6,2863.1,812.4,2862.7,825.4L2862.7,825.4z"/>
					
						<linearGradient id="SVGID_9_" gradientUnits="userSpaceOnUse" x1="3062.8259" y1="734.0539" x2="3022.7947" y2="1388.5577" gradientTransform="matrix(0.9996 3.000000e-02 -3.000000e-02 0.9996 2.4187 21.4987)">
						<stop  offset="0" style="stop-color:#53D8FF"/>
						<stop  offset="1" style="stop-color:#3840F7"/>
					</linearGradient>
					<path class="st10" d="M3209.8,835.8c-0.4,13-11.2,23.2-24.2,22.8L2900,850c-13-0.4-23.2-11.2-22.8-24.2l0,0
						c0.4-13,11.2-23.2,24.2-22.8l285.6,8.6C3200,812,3210.2,822.8,3209.8,835.8L3209.8,835.8z"/>
				</g>
				<g>
					<linearGradient id="SVGID_10_" gradientUnits="userSpaceOnUse" x1="2475.1587" y1="631.1897" x2="3314.4958" y2="1215.0767">
						<stop  offset="0" style="stop-color:#FDF53F"/>
						<stop  offset="1" style="stop-color:#D93C65"/>
					</linearGradient>
					<path class="st11" d="M2532.1,607c1.4-1.2,1.9-3.2,1.4-4.9c-0.5-1.8-2-3.1-3.8-3.4l-38.2-6.7l-16.1-35.3
						c-0.8-1.7-2.4-2.8-4.3-2.8c-1.8-0.1-3.6,0.9-4.4,2.6l-17,32c-0.7,1.4-2.1,2.4-3.7,2.5l-36,4.1c-1.8,0.2-3.4,1.4-4,3.2
						c-0.6,1.7-0.2,3.7,1.1,5l25.2,26c1.1,1.1,1.6,2.8,1.3,4.3l-7.2,35.5c-0.4,1.8,0.3,3.7,1.8,4.8c1.5,1.1,3.4,1.3,5.1,0.5
						l32.5-15.9c1.4-0.7,3.1-0.6,4.5,0.1l31.5,17.8c1.6,0.9,3.6,0.8,5.1-0.2c1.5-1,2.3-2.8,2.1-4.7l-5-35.9
						c-0.2-1.6,0.3-3.2,1.5-4.2L2532.1,607z"/>
					<linearGradient id="SVGID_11_" gradientUnits="userSpaceOnUse" x1="2528.6738" y1="554.2618" x2="3368.0095" y2="1138.1479">
						<stop  offset="0" style="stop-color:#FDF53F"/>
						<stop  offset="1" style="stop-color:#D93C65"/>
					</linearGradient>
					<path class="st12" d="M2703.6,612.1c1.4-1.2,1.9-3.2,1.4-4.9c-0.5-1.8-2-3.1-3.8-3.4l-38.2-6.7l-16.1-35.3
						c-0.8-1.7-2.4-2.8-4.3-2.8c-1.8-0.1-3.6,0.9-4.4,2.6l-17,32c-0.7,1.4-2.1,2.4-3.7,2.5l-36,4.1c-1.8,0.2-3.4,1.4-4,3.2
						c-0.6,1.7-0.2,3.7,1.1,5l25.2,26c1.1,1.1,1.6,2.8,1.3,4.3l-7.2,35.5c-0.4,1.8,0.3,3.7,1.8,4.8c1.5,1.1,3.4,1.3,5.1,0.5
						l32.5-15.9c1.4-0.7,3.1-0.6,4.5,0.1l31.5,17.8c1.6,0.9,3.6,0.8,5.1-0.2c1.5-1,2.3-2.8,2.1-4.7l-5-35.9
						c-0.2-1.6,0.3-3.2,1.5-4.2L2703.6,612.1z"/>
					<linearGradient id="SVGID_12_" gradientUnits="userSpaceOnUse" x1="2582.189" y1="477.3341" x2="3421.5264" y2="1061.2212">
						<stop  offset="0" style="stop-color:#FDF53F"/>
						<stop  offset="1" style="stop-color:#D93C65"/>
					</linearGradient>
					<path class="st13" d="M2875.1,617.3c1.4-1.2,1.9-3.2,1.4-4.9c-0.5-1.8-2-3.1-3.8-3.4l-38.2-6.7l-16.1-35.3
						c-0.8-1.7-2.4-2.8-4.3-2.8c-1.8-0.1-3.6,0.9-4.4,2.6l-17,32c-0.7,1.4-2.1,2.4-3.7,2.5l-36,4.1c-1.8,0.2-3.4,1.4-4,3.2
						c-0.6,1.7-0.2,3.7,1.1,5l25.2,26c1.1,1.1,1.6,2.8,1.3,4.3l-7.2,35.5c-0.4,1.8,0.3,3.7,1.8,4.8c1.5,1.1,3.4,1.3,5.1,0.5
						l32.5-15.9c1.4-0.7,3.1-0.6,4.5,0.1l31.5,17.8c1.6,0.9,3.6,0.8,5.1-0.2c1.5-1,2.3-2.8,2.1-4.7l-5-35.9
						c-0.2-1.6,0.3-3.2,1.5-4.2L2875.1,617.3z"/>
					
						<linearGradient id="SVGID_13_" gradientUnits="userSpaceOnUse" x1="2975.6709" y1="568.2117" x2="3022.239" y2="453.0134" gradientTransform="matrix(0.9996 3.000000e-02 -3.000000e-02 0.9996 2.4187 21.4987)">
						<stop  offset="0" style="stop-color:#53D8FF"/>
						<stop  offset="1" style="stop-color:#3840F7"/>
					</linearGradient>
					<path class="st14" d="M3046.5,622.4c1.4-1.2,1.9-3.2,1.4-4.9c-0.5-1.8-2-3.1-3.8-3.4l-38.2-6.7l-16.1-35.3
						c-0.8-1.7-2.4-2.8-4.3-2.8c-1.8-0.1-3.6,0.9-4.4,2.6l-17,32c-0.7,1.4-2.1,2.4-3.7,2.5l-36,4.1c-1.8,0.2-3.4,1.4-4,3.2
						c-0.6,1.7-0.2,3.7,1.1,5l25.2,26c1.1,1.1,1.6,2.8,1.3,4.3l-7.2,35.5c-0.4,1.8,0.3,3.7,1.8,4.8c1.5,1.1,3.4,1.3,5.1,0.5
						l32.5-15.9c1.4-0.7,3.1-0.6,4.5,0.1l31.5,17.8c1.6,0.9,3.6,0.8,5.1-0.2c1.5-1,2.3-2.8,2.1-4.7l-5-35.9
						c-0.2-1.6,0.3-3.2,1.5-4.2L3046.5,622.4z"/>
					
						<linearGradient id="SVGID_14_" gradientUnits="userSpaceOnUse" x1="3147.2358" y1="568.2108" x2="3193.8042" y2="453.0124" gradientTransform="matrix(0.9996 3.000000e-02 -3.000000e-02 0.9996 2.4187 21.4987)">
						<stop  offset="0" style="stop-color:#53D8FF"/>
						<stop  offset="1" style="stop-color:#3840F7"/>
					</linearGradient>
					<path class="st15" d="M3218,627.6c1.4-1.2,1.9-3.2,1.4-4.9c-0.5-1.8-2-3.1-3.8-3.4l-38.2-6.7l-16.1-35.3
						c-0.8-1.7-2.4-2.8-4.3-2.8c-1.8-0.1-3.6,0.9-4.4,2.6l-17,32c-0.7,1.4-2.1,2.4-3.7,2.5l-36,4.1c-1.8,0.2-3.4,1.4-4,3.2
						c-0.6,1.7-0.2,3.7,1.1,5l25.2,26c1.1,1.1,1.6,2.8,1.3,4.3l-7.2,35.5c-0.4,1.8,0.3,3.7,1.8,4.8c1.5,1.1,3.4,1.3,5.1,0.5
						l32.5-15.9c1.4-0.7,3.1-0.6,4.5,0.1l31.5,17.8c1.6,0.9,3.6,0.8,5.1-0.2c1.5-1,2.3-2.8,2.1-4.7l-5-35.9
						c-0.2-1.6,0.3-3.2,1.5-4.2L3218,627.6z"/>
				</g>
			</g>
			<g>
				<path class="st2" d="M3330,1144.9l-8.6,287.7c-0.7,23.4-15.6,42-33.2,41.5l-1048-31.4c-14.6-0.4-27.8,12.4-31.9,31.2l-21.8,99.6
					c-2.9,13.2-16.8,13.9-20.1,1l-21.7-85.3c-4.2-16.6-15.8-27.8-29-28.2l-45-1.4c-17.6-0.5-31.3-20-30.6-43.4l8.9-295.7
					c0.7-23.3,15.4-41.8,32.9-41.5l1217.3,22.6C3316.9,1101.8,3330.8,1121.3,3330,1144.9z"/>
				<g>
					
						<linearGradient id="SVGID_15_" gradientUnits="userSpaceOnUse" x1="700.0483" y1="976.8849" x2="413.5385" y2="1401.0094" gradientTransform="matrix(-0.9996 -3.000000e-02 -3.000000e-02 0.9996 2812.4299 105.757)">
						<stop  offset="0" style="stop-color:#53D8FF"/>
						<stop  offset="1" style="stop-color:#3840F7"/>
					</linearGradient>
					<path class="st16" d="M2078.6,1253.1c-2.2,72.9,53.6,133.6,124.6,135.8c71,2.1,130.3-55.2,132.5-128.1
						c2.2-72.9-53.6-133.7-124.6-135.8C2140.1,1122.9,2080.8,1180.2,2078.6,1253.1z"/>
					<g>
						<path class="st2" d="M2255.3,1204.9c-0.7,23.7-20.7,48.7-44.4,48c-23.7-0.7-42.1-26.9-41.4-50.6c0.7-23.7,20.4-39.9,44.1-39.2
							C2237.3,1163.8,2256.1,1181.2,2255.3,1204.9z"/>
						<path class="st2" d="M2155,1342.5l104.7,3.1c11,0.3,21-6.5,24.7-16.9l6.2-17.4c4.5-12.8-1.8-26.9-14.4-32
							c-42.2-16.9-86.3-16.2-131.9-2.5c-12.8,3.8-20.2,17.2-17.1,30.1l3.9,16.1C2133.7,1334.2,2143.5,1342.2,2155,1342.5z"/>
					</g>
				</g>
				<g>
					
						<linearGradient id="SVGID_16_" gradientUnits="userSpaceOnUse" x1="715.5654" y1="1227.2296" x2="656.7502" y2="2188.8501" gradientTransform="matrix(-0.9996 -3.000000e-02 -3.000000e-02 0.9996 3554.0959 128.0119)">
						<stop  offset="0" style="stop-color:#53D8FF"/>
						<stop  offset="1" style="stop-color:#3840F7"/>
					</linearGradient>
					<path class="st17" d="M2409.4,1297.5c-0.4,13.8,10.4,25.3,24.2,25.7l733.8,22c13.8,0.4,25.3-10.4,25.7-24.2l0,0
						c0.4-13.8-10.4-25.3-24.2-25.7l-733.8-22C2421.3,1272.9,2409.8,1283.7,2409.4,1297.5L2409.4,1297.5z"/>
					
						<linearGradient id="SVGID_17_" gradientUnits="userSpaceOnUse" x1="542.4093" y1="1307.1937" x2="498.2669" y2="2028.915" gradientTransform="matrix(-0.9996 -3.000000e-02 -3.000000e-02 0.9996 3554.0959 128.0119)">
						<stop  offset="0" style="stop-color:#53D8FF"/>
						<stop  offset="1" style="stop-color:#3840F7"/>
					</linearGradient>
					<path class="st18" d="M3192.6,1407c0.4-13-9.8-23.8-22.8-24.2l-394-11.8c-13-0.4-23.8,9.8-24.2,22.8l0,0
						c-0.4,13,9.8,23.8,22.8,24.2l394,11.8C3181.4,1430.2,3192.2,1419.9,3192.6,1407L3192.6,1407z"/>
					
						<linearGradient id="SVGID_18_" gradientUnits="userSpaceOnUse" x1="943.925" y1="1305.5159" x2="903.8956" y2="1959.9901" gradientTransform="matrix(-0.9996 -3.000000e-02 -3.000000e-02 0.9996 3554.0959 128.0119)">
						<stop  offset="0" style="stop-color:#53D8FF"/>
						<stop  offset="1" style="stop-color:#3840F7"/>
					</linearGradient>
					<path class="st19" d="M2737.2,1393.3c0.4-13-9.8-23.8-22.8-24.2l-285.6-8.6c-13-0.4-23.8,9.8-24.2,22.8l0,0
						c-0.4,13,9.8,23.8,22.8,24.2l285.6,8.6C2725.9,1416.5,2736.8,1406.3,2737.2,1393.3L2737.2,1393.3z"/>
				</g>
				<g>
					
						<linearGradient id="SVGID_19_" gradientUnits="userSpaceOnUse" x1="2492.4819" y1="1100.0099" x2="4296.041" y2="1944.4518" gradientTransform="matrix(0.9996 3.000000e-02 -3.000000e-02 0.9996 2.4187 21.4987)">
						<stop  offset="0" style="stop-color:#FDF53F"/>
						<stop  offset="1" style="stop-color:#D93C65"/>
					</linearGradient>
					<path class="st20" d="M2515,1174.8c1.4-1.2,1.9-3.2,1.4-4.9c-0.5-1.8-2-3.1-3.8-3.4l-38.2-6.7l-16.1-35.3
						c-0.8-1.7-2.4-2.8-4.3-2.8c-1.8-0.1-3.6,0.9-4.4,2.6l-17,32c-0.7,1.4-2.1,2.4-3.7,2.5l-36,4.1c-1.8,0.2-3.4,1.4-4,3.2
						c-0.6,1.7-0.2,3.7,1.1,5l25.2,26c1.1,1.1,1.6,2.8,1.3,4.3l-7.2,35.5c-0.4,1.8,0.3,3.7,1.8,4.8c1.5,1.1,3.4,1.3,5.1,0.5
						l32.5-15.9c1.4-0.7,3.1-0.6,4.5,0.1l31.5,17.8c1.6,0.9,3.6,0.8,5.1-0.2c1.5-1,2.3-2.8,2.1-4.7l-5-35.9
						c-0.2-1.6,0.3-3.2,1.5-4.2L2515,1174.8z"/>
					
						<linearGradient id="SVGID_20_" gradientUnits="userSpaceOnUse" x1="2523.3298" y1="1034.124" x2="4326.8848" y2="1878.5642" gradientTransform="matrix(0.9996 3.000000e-02 -3.000000e-02 0.9996 2.4187 21.4987)">
						<stop  offset="0" style="stop-color:#FDF53F"/>
						<stop  offset="1" style="stop-color:#D93C65"/>
					</linearGradient>
					<path class="st21" d="M2686.5,1180c1.4-1.2,1.9-3.2,1.4-4.9c-0.5-1.8-2-3.1-3.8-3.4l-38.2-6.7l-16.1-35.3
						c-0.8-1.7-2.4-2.8-4.3-2.8c-1.8-0.1-3.6,0.9-4.4,2.6l-17,32c-0.7,1.4-2.1,2.4-3.7,2.5l-36,4.1c-1.8,0.2-3.4,1.4-4,3.2
						c-0.6,1.7-0.2,3.7,1.1,5l25.2,26c1.1,1.1,1.6,2.8,1.3,4.3l-7.2,35.5c-0.4,1.8,0.3,3.7,1.8,4.8c1.5,1.1,3.4,1.3,5.1,0.5
						l32.5-15.9c1.4-0.7,3.1-0.6,4.5,0.1l31.5,17.8c1.6,0.9,3.6,0.8,5.1-0.2c1.5-1,2.3-2.8,2.1-4.7l-5-35.9
						c-0.2-1.6,0.3-3.2,1.5-4.2L2686.5,1180z"/>
					
						<linearGradient id="SVGID_21_" gradientUnits="userSpaceOnUse" x1="2554.1772" y1="968.238" x2="4357.7256" y2="1812.675" gradientTransform="matrix(0.9996 3.000000e-02 -3.000000e-02 0.9996 2.4187 21.4987)">
						<stop  offset="0" style="stop-color:#FDF53F"/>
						<stop  offset="1" style="stop-color:#D93C65"/>
					</linearGradient>
					<path class="st22" d="M2858,1185.1c1.4-1.2,1.9-3.2,1.4-4.9c-0.5-1.8-2-3.1-3.8-3.4l-38.2-6.7l-16.1-35.3
						c-0.8-1.7-2.4-2.8-4.3-2.8c-1.8-0.1-3.6,0.9-4.4,2.6l-17,32c-0.7,1.4-2.1,2.4-3.7,2.5l-36,4.1c-1.8,0.2-3.4,1.4-4,3.2
						c-0.6,1.7-0.2,3.7,1.1,5l25.2,26c1.1,1.1,1.6,2.8,1.3,4.3l-7.2,35.5c-0.4,1.8,0.3,3.7,1.8,4.8c1.5,1.1,3.4,1.3,5.1,0.5
						l32.5-15.9c1.4-0.7,3.1-0.6,4.5,0.1l31.5,17.8c1.6,0.9,3.6,0.8,5.1-0.2c1.5-1,2.3-2.8,2.1-4.7l-5-35.9
						c-0.2-1.6,0.3-3.2,1.5-4.2L2858,1185.1z"/>
					
						<linearGradient id="SVGID_22_" gradientUnits="userSpaceOnUse" x1="2585.0249" y1="902.352" x2="4388.5825" y2="1746.7933" gradientTransform="matrix(0.9996 3.000000e-02 -3.000000e-02 0.9996 2.4187 21.4987)">
						<stop  offset="0" style="stop-color:#FDF53F"/>
						<stop  offset="1" style="stop-color:#D93C65"/>
					</linearGradient>
					<path class="st23" d="M3029.5,1190.3c1.4-1.2,1.9-3.2,1.4-4.9c-0.5-1.8-2-3.1-3.8-3.4l-38.2-6.7l-16.1-35.3
						c-0.8-1.7-2.4-2.8-4.3-2.8c-1.8-0.1-3.6,0.9-4.4,2.6l-17,32c-0.7,1.4-2.1,2.4-3.7,2.5l-36,4.1c-1.8,0.2-3.4,1.4-4,3.2
						c-0.6,1.7-0.2,3.7,1.1,5l25.2,26c1.1,1.1,1.6,2.8,1.3,4.3l-7.2,35.5c-0.4,1.8,0.3,3.7,1.8,4.8c1.5,1.1,3.4,1.3,5.1,0.5
						l32.5-15.9c1.4-0.7,3.1-0.6,4.5,0.1l31.5,17.8c1.6,0.9,3.6,0.8,5.1-0.2c1.5-1,2.3-2.8,2.1-4.7l-5-35.9
						c-0.2-1.6,0.3-3.2,1.5-4.2L3029.5,1190.3z"/>
					
						<linearGradient id="SVGID_23_" gradientUnits="userSpaceOnUse" x1="2615.873" y1="836.4663" x2="4419.4321" y2="1680.9083" gradientTransform="matrix(0.9996 3.000000e-02 -3.000000e-02 0.9996 2.4187 21.4987)">
						<stop  offset="0" style="stop-color:#FDF53F"/>
						<stop  offset="1" style="stop-color:#D93C65"/>
					</linearGradient>
					<path class="st24" d="M3201,1195.4c1.4-1.2,1.9-3.2,1.4-4.9c-0.5-1.8-2-3.1-3.8-3.4l-38.2-6.7l-16.1-35.3
						c-0.8-1.7-2.4-2.8-4.3-2.8c-1.8-0.1-3.6,0.9-4.4,2.6l-17,32c-0.7,1.4-2.1,2.4-3.7,2.5l-36,4.1c-1.8,0.2-3.4,1.4-4,3.2
						c-0.6,1.7-0.2,3.7,1.1,5l25.2,26c1.1,1.1,1.6,2.8,1.3,4.3l-7.2,35.5c-0.4,1.8,0.3,3.7,1.8,4.8c1.5,1.1,3.4,1.3,5.1,0.5
						l32.5-15.9c1.4-0.7,3.1-0.6,4.5,0.1l31.5,17.8c1.6,0.9,3.6,0.8,5.1-0.2c1.5-1,2.3-2.8,2.1-4.7l-5-35.9
						c-0.2-1.6,0.3-3.2,1.5-4.2L3201,1195.4z"/>
				</g>
			</g>
			<g>
				<path class="st2" d="M3313.1,1711.2l-8.6,287.7c-0.7,23.4-15.6,42-33.2,41.5l-1048-31.4c-14.6-0.4-27.8,12.4-31.9,31.2
					l-21.8,99.6c-2.9,13.2-16.8,13.9-20.1,1l-21.7-85.3c-4.2-16.6-15.8-27.8-29-28.2l-45-1.4c-17.6-0.5-31.3-20-30.6-43.4l8.9-295.7
					c0.7-23.3,15.4-41.8,32.9-41.5l1217.3,22.6C3299.9,1668.1,3313.8,1687.6,3313.1,1711.2z"/>
				<g>
					
						<linearGradient id="SVGID_24_" gradientUnits="userSpaceOnUse" x1="700.0452" y1="1543.4147" x2="413.5355" y2="1967.5391" gradientTransform="matrix(-0.9996 -3.000000e-02 -3.000000e-02 0.9996 2812.4299 105.757)">
						<stop  offset="0" style="stop-color:#53D8FF"/>
						<stop  offset="1" style="stop-color:#3840F7"/>
					</linearGradient>
					<path class="st25" d="M2061.6,1819.4c-2.2,72.9,53.6,133.6,124.6,135.8c71,2.1,130.3-55.2,132.5-128.1
						c2.2-72.9-53.6-133.7-124.6-135.8C2123.1,1689.2,2063.8,1746.5,2061.6,1819.4z"/>
					<g>
						<path class="st2" d="M2238.3,1771.2c-0.7,23.7-20.7,48.7-44.4,48c-23.7-0.7-42.1-26.9-41.4-50.6c0.7-23.7,20.4-39.9,44.1-39.2
							C2220.4,1730.1,2239.1,1747.5,2238.3,1771.2z"/>
						<path class="st2" d="M2138,1908.8l104.7,3.1c11,0.3,21-6.5,24.7-16.9l6.2-17.4c4.5-12.8-1.8-26.9-14.4-32
							c-42.2-16.9-86.3-16.2-131.9-2.5c-12.8,3.8-20.2,17.2-17.1,30.1l3.9,16.1C2116.7,1900.5,2126.5,1908.5,2138,1908.8z"/>
					</g>
				</g>
				<g>
					
						<linearGradient id="SVGID_25_" gradientUnits="userSpaceOnUse" x1="2832.8179" y1="1793.6819" x2="2773.9978" y2="2755.3816" gradientTransform="matrix(0.9996 3.000000e-02 -3.000000e-02 0.9996 2.4187 21.4987)">
						<stop  offset="0" style="stop-color:#53D8FF"/>
						<stop  offset="1" style="stop-color:#3840F7"/>
					</linearGradient>
					<path class="st26" d="M3174.3,1887.2c-0.4,13.8-11.9,24.6-25.7,24.2l-733.8-22c-13.8-0.4-24.6-11.9-24.2-25.7l0,0
						c0.4-13.8,11.9-24.6,25.7-24.2l733.8,22C3163.9,1862,3174.7,1873.5,3174.3,1887.2L3174.3,1887.2z"/>
					
						<linearGradient id="SVGID_26_" gradientUnits="userSpaceOnUse" x1="2661.3162" y1="1871.265" x2="2617.1711" y2="2593.0291" gradientTransform="matrix(0.9996 3.000000e-02 -3.000000e-02 0.9996 2.4187 21.4987)">
						<stop  offset="0" style="stop-color:#53D8FF"/>
						<stop  offset="1" style="stop-color:#3840F7"/>
					</linearGradient>
					<path class="st27" d="M2828.7,1960.5c-0.4,13-11.2,23.2-24.2,22.8l-394-11.8c-13-0.4-23.2-11.2-22.8-24.2l0,0
						c0.4-13,11.2-23.2,24.2-22.8l394,11.8C2818.9,1936.7,2829.1,1947.5,2828.7,1960.5L2828.7,1960.5z"/>
					
						<linearGradient id="SVGID_27_" gradientUnits="userSpaceOnUse" x1="3062.832" y1="1869.5825" x2="3022.8008" y2="2524.0874" gradientTransform="matrix(0.9996 3.000000e-02 -3.000000e-02 0.9996 2.4187 21.4987)">
						<stop  offset="0" style="stop-color:#53D8FF"/>
						<stop  offset="1" style="stop-color:#3840F7"/>
					</linearGradient>
					<path class="st28" d="M3175.7,1970.9c-0.4,13-11.2,23.2-24.2,22.8l-285.6-8.6c-13-0.4-23.2-11.2-22.8-24.2l0,0
						c0.4-13,11.2-23.2,24.2-22.8l285.6,8.6C3165.9,1947.1,3176.1,1957.9,3175.7,1970.9L3175.7,1970.9z"/>
				</g>
				<g>
					<linearGradient id="SVGID_28_" gradientUnits="userSpaceOnUse" x1="2309.5637" y1="1672.5844" x2="3190.5327" y2="2295.519">
						<stop  offset="0" style="stop-color:#FDF53F"/>
						<stop  offset="1" style="stop-color:#D93C65"/>
					</linearGradient>
					<path class="st29" d="M2498,1741.1c1.4-1.2,1.9-3.2,1.4-4.9c-0.5-1.8-2-3.1-3.8-3.4l-38.2-6.7l-16.1-35.3
						c-0.8-1.7-2.4-2.8-4.3-2.8c-1.8-0.1-3.6,0.9-4.4,2.6l-17,32c-0.7,1.4-2.1,2.4-3.7,2.5l-36,4.1c-1.8,0.2-3.4,1.4-4,3.2
						c-0.6,1.7-0.2,3.7,1.1,5l25.2,26c1.1,1.1,1.6,2.8,1.3,4.3l-7.2,35.5c-0.4,1.8,0.3,3.7,1.8,4.8c1.5,1.1,3.4,1.3,5.1,0.5
						l32.5-15.9c1.4-0.7,3.1-0.6,4.5,0.1l31.5,17.8c1.6,0.9,3.6,0.8,5.1-0.2c1.5-1,2.3-2.8,2.1-4.7l-5-35.9
						c-0.2-1.6,0.3-3.2,1.5-4.2L2498,1741.1z"/>
					
						<linearGradient id="SVGID_29_" gradientUnits="userSpaceOnUse" x1="2632.5474" y1="1702.8136" x2="2679.1155" y2="1587.6154" gradientTransform="matrix(0.9996 3.000000e-02 -3.000000e-02 0.9996 2.4187 21.4987)">
						<stop  offset="0" style="stop-color:#53D8FF"/>
						<stop  offset="1" style="stop-color:#3840F7"/>
					</linearGradient>
					<path class="st30" d="M2669.5,1746.3c1.4-1.2,1.9-3.2,1.4-4.9c-0.5-1.8-2-3.1-3.8-3.4l-38.2-6.7l-16.1-35.3
						c-0.8-1.7-2.4-2.8-4.3-2.8c-1.8-0.1-3.6,0.9-4.4,2.6l-17,32c-0.7,1.4-2.1,2.4-3.7,2.5l-36,4.1c-1.8,0.2-3.4,1.4-4,3.2
						c-0.6,1.7-0.2,3.7,1.1,5l25.2,26c1.1,1.1,1.6,2.8,1.3,4.3l-7.2,35.5c-0.4,1.8,0.3,3.7,1.8,4.8c1.5,1.1,3.4,1.3,5.1,0.5
						l32.5-15.9c1.4-0.7,3.1-0.6,4.5,0.1l31.5,17.8c1.6,0.9,3.6,0.8,5.1-0.2c1.5-1,2.3-2.8,2.1-4.7l-5-35.9
						c-0.2-1.6,0.3-3.2,1.5-4.2L2669.5,1746.3z"/>
					
						<linearGradient id="SVGID_30_" gradientUnits="userSpaceOnUse" x1="2804.1121" y1="1702.8127" x2="2850.6802" y2="1587.6144" gradientTransform="matrix(0.9996 3.000000e-02 -3.000000e-02 0.9996 2.4187 21.4987)">
						<stop  offset="0" style="stop-color:#53D8FF"/>
						<stop  offset="1" style="stop-color:#3840F7"/>
					</linearGradient>
					<path class="st31" d="M2841,1751.4c1.4-1.2,1.9-3.2,1.4-4.9c-0.5-1.8-2-3.1-3.8-3.4l-38.2-6.7l-16.1-35.3
						c-0.8-1.7-2.4-2.8-4.3-2.8c-1.8-0.1-3.6,0.9-4.4,2.6l-17,32c-0.7,1.4-2.1,2.4-3.7,2.5l-36,4.1c-1.8,0.2-3.4,1.4-4,3.2
						c-0.6,1.7-0.2,3.7,1.1,5l25.2,26c1.1,1.1,1.6,2.8,1.3,4.3l-7.2,35.5c-0.4,1.8,0.3,3.7,1.8,4.8c1.5,1.1,3.4,1.3,5.1,0.5
						l32.5-15.9c1.4-0.7,3.1-0.6,4.5,0.1l31.5,17.8c1.6,0.9,3.6,0.8,5.1-0.2c1.5-1,2.3-2.8,2.1-4.7l-5-35.9
						c-0.2-1.6,0.3-3.2,1.5-4.2L2841,1751.4z"/>
					
						<linearGradient id="SVGID_31_" gradientUnits="userSpaceOnUse" x1="2975.677" y1="1702.8118" x2="3022.2451" y2="1587.6134" gradientTransform="matrix(0.9996 3.000000e-02 -3.000000e-02 0.9996 2.4187 21.4987)">
						<stop  offset="0" style="stop-color:#53D8FF"/>
						<stop  offset="1" style="stop-color:#3840F7"/>
					</linearGradient>
					<path class="st32" d="M3012.5,1756.6c1.4-1.2,1.9-3.2,1.4-4.9c-0.5-1.8-2-3.1-3.8-3.4l-38.2-6.7l-16.1-35.3
						c-0.8-1.7-2.4-2.8-4.3-2.8c-1.8-0.1-3.6,0.9-4.4,2.6l-17,32c-0.7,1.4-2.1,2.4-3.7,2.5l-36,4.1c-1.8,0.2-3.4,1.4-4,3.2
						c-0.6,1.7-0.2,3.7,1.1,5l25.2,26c1.1,1.1,1.6,2.8,1.3,4.3l-7.2,35.5c-0.4,1.8,0.3,3.7,1.8,4.8c1.5,1.1,3.4,1.3,5.1,0.5
						l32.5-15.9c1.4-0.7,3.1-0.6,4.5,0.1l31.5,17.8c1.6,0.9,3.6,0.8,5.1-0.2c1.5-1,2.3-2.8,2.1-4.7l-5-35.9
						c-0.2-1.6,0.3-3.2,1.5-4.2L3012.5,1756.6z"/>
					
						<linearGradient id="SVGID_32_" gradientUnits="userSpaceOnUse" x1="3147.2419" y1="1702.8109" x2="3193.8101" y2="1587.6124" gradientTransform="matrix(0.9996 3.000000e-02 -3.000000e-02 0.9996 2.4187 21.4987)">
						<stop  offset="0" style="stop-color:#53D8FF"/>
						<stop  offset="1" style="stop-color:#3840F7"/>
					</linearGradient>
					<path class="st33" d="M3184,1761.7c1.4-1.2,1.9-3.2,1.4-4.9c-0.5-1.8-2-3.1-3.8-3.4l-38.2-6.7l-16.1-35.3
						c-0.8-1.7-2.4-2.8-4.3-2.8c-1.8-0.1-3.6,0.9-4.4,2.6l-17,32c-0.7,1.4-2.1,2.4-3.7,2.5l-36,4.1c-1.8,0.2-3.4,1.4-4,3.2
						c-0.6,1.7-0.2,3.7,1.1,5l25.2,26c1.1,1.1,1.6,2.8,1.3,4.3l-7.2,35.5c-0.4,1.8,0.3,3.7,1.8,4.8c1.5,1.1,3.4,1.3,5.1,0.5
						l32.5-15.9c1.4-0.7,3.1-0.6,4.5,0.1l31.5,17.8c1.6,0.9,3.6,0.8,5.1-0.2s2.3-2.8,2.1-4.7l-5-35.9c-0.2-1.6,0.3-3.2,1.5-4.2
						L3184,1761.7z"/>
				</g>
			</g>
		</g>
		<g>
			<linearGradient id="SVGID_33_" gradientUnits="userSpaceOnUse" x1="3452.1082" y1="1435.8512" x2="3127.0337" y2="2223.0784">
				<stop  offset="0" style="stop-color:#CB236D"/>
				<stop  offset="1" style="stop-color:#4C246D"/>
			</linearGradient>
			<path class="st34" d="M3045.5,2075.3c-9.5,0-17.3-7.5-17.6-17.1c-0.3-11.2-6.4-274.2,175.1-302.3c38.6-6,73,3.2,102.2,27.3
				c89.6,73.8,98,265.7,98.3,273.8c0.4,9.7-7.2,17.9-16.9,18.3c-9.8,0.4-17.9-7.2-18.3-16.9c-0.1-1.8-8.1-184.2-85.6-248
				c-21.4-17.6-45.7-24-74.3-19.6c-151,23.4-145.3,263.9-145.3,266.4c0.3,9.7-7.3,17.9-17.1,18.2
				C3045.9,2075.3,3045.7,2075.3,3045.5,2075.3z"/>
			<linearGradient id="SVGID_34_" gradientUnits="userSpaceOnUse" x1="3382.4485" y1="2149.8809" x2="2468.4558" y2="3230.5115">
				<stop  offset="0" style="stop-color:#CB236D"/>
				<stop  offset="1" style="stop-color:#4C246D"/>
			</linearGradient>
			<path class="st35" d="M2729.3,2734.4l129-735.8l484.6-8L3499,2783h-727.8C2745.4,2783,2725.5,2760,2729.3,2734.4z"/>
			<linearGradient id="SVGID_35_" gradientUnits="userSpaceOnUse" x1="3310.2151" y1="2503.5913" x2="3794.7231" y2="2154.9072">
				<stop  offset="0" style="stop-color:#CB236D"/>
				<stop  offset="1" style="stop-color:#4C246D"/>
			</linearGradient>
			<path class="st36" d="M3436.9,1998.6l-94.1-8L3499,2783h93.4c18.9,0,33.1-17.4,29.2-36L3436.9,1998.6z"/>
			<linearGradient id="SVGID_36_" gradientUnits="userSpaceOnUse" x1="3226.8787" y1="1672.7422" x2="2903.6975" y2="2627.1335">
				<stop  offset="0" style="stop-color:#CB236D"/>
				<stop  offset="1" style="stop-color:#4C246D"/>
			</linearGradient>
			<path class="st37" d="M2941.4,2073.3c-9.5,0-17.3-7.5-17.6-17.1c-0.3-11.2-6.4-274.2,175.1-302.3c38.6-6,73,3.2,102.2,27.3
				c89.6,73.8,98,265.7,98.3,273.8c0.4,9.7-7.2,17.9-16.9,18.3c-9.7,0.5-17.9-7.2-18.3-16.9c-0.1-1.8-8.1-184.2-85.6-248
				c-21.4-17.6-45.7-24-74.3-19.6c-151,23.4-145.3,263.9-145.3,266.4c0.3,9.7-7.3,17.9-17.1,18.2
				C2941.7,2073.3,2941.6,2073.3,2941.4,2073.3z"/>
		</g>
		<g>
			<linearGradient id="SVGID_37_" gradientUnits="userSpaceOnUse" x1="3459.8413" y1="2275.9648" x2="3731.2114" y2="2275.9648">
				<stop  offset="0" style="stop-color:#A737D5"/>
				<stop  offset="1" style="stop-color:#EF497A"/>
			</linearGradient>
			<path class="st38" d="M3466.6,2391c-3.6,0-6.6-2.9-6.7-6.5c-0.1-2-1.4-50.6,13.1-102.3c19.6-70,59-111.4,113.9-119.9
				c27.3-4.2,51.6,2.2,72.2,19.2c65.6,54.1,71.9,196.5,72.1,202.6c0.1,3.7-2.7,6.8-6.4,6.9c-3.7,0.1-6.8-2.7-7-6.4
				c-0.1-1.4-6.3-142.5-67.2-192.8c-17.5-14.4-38.2-19.9-61.6-16.3c-120.2,18.6-115.8,206.7-115.7,208.6c0.1,3.7-2.8,6.8-6.5,6.9
				C3466.7,2391,3466.7,2391,3466.6,2391z"/>
			<linearGradient id="SVGID_38_" gradientUnits="userSpaceOnUse" x1="3794.9902" y1="2315.679" x2="3212.9868" y2="2943.3301">
				<stop  offset="0" style="stop-color:#FDF53F"/>
				<stop  offset="1" style="stop-color:#D93C65"/>
			</linearGradient>
			<path class="st39" d="M3227,2745.7l97.7-406.2l367.2-6.1l118.3,449.1h-551.4C3239.2,2782.5,3224.1,2765.1,3227,2745.7z"/>
			<linearGradient id="SVGID_39_" gradientUnits="userSpaceOnUse" x1="4107.4604" y1="2271.6426" x2="3451.281" y2="2865.0562">
				<stop  offset="0" style="stop-color:#FDF53F"/>
				<stop  offset="1" style="stop-color:#D93C65"/>
			</linearGradient>
			<path class="st40" d="M3763.2,2339.5l-71.3-6.1l118.3,449.1h70.8c14.4,0,25.1-13.2,22.2-27.2L3763.2,2339.5z"/>
			<g>
				
					<linearGradient id="SVGID_40_" gradientUnits="userSpaceOnUse" x1="2481.8438" y1="1927.5253" x2="2679.3689" y2="2067.0359" gradientTransform="matrix(0.8782 0.4783 -0.4783 0.8782 2242.9177 -340.9625)">
					<stop  offset="0" style="stop-color:#53D8FF"/>
					<stop  offset="1" style="stop-color:#3840F7"/>
				</linearGradient>
				<path class="st41" d="M3664.1,2511.1l-11.1-35.9c-1.7-5.5-5.4-10.1-10.5-12.8l-51.2-27.9c-4.9-2.7-10.7-3.4-16.2-1.9l-36.7,9.9
					c-5.6,1.5-10.4,5.2-13.3,10.2l-130,224.3c-6.2,10.7-2.3,24.3,8.5,30.2l115.6,63c11,6,24.7,1.6,30.2-9.7l113.4-233.3
					C3665.3,2522.1,3665.7,2516.4,3664.1,2511.1z M3595.3,2489c-10.7-3.7-14.5-16.7-7.6-25.6c4.2-5.4,11.6-7.6,18.1-5.3
					c10.7,3.7,14.5,16.7,7.6,25.6C3609.2,2489.1,3601.8,2491.3,3595.3,2489z"/>
				<path class="st42" d="M3527.2,2509.1l93.2,32c3.7,1.3,5.4,5.6,3.5,9l-2.6,4.8c-1.5,2.8-5,4-7.9,2.8l-90.6-36.8
					c-3.5-1.4-5-5.6-3.2-8.9l0,0C3521.1,2509.4,3524.3,2508.1,3527.2,2509.1z"/>
				<path class="st42" d="M3513.3,2534.6l93.2,32c3.7,1.3,5.4,5.6,3.5,9l-2.6,4.8c-1.5,2.8-5,4-7.9,2.8l-90.6-36.8
					c-3.5-1.4-5-5.6-3.2-8.9l0,0C3507.2,2534.9,3510.4,2533.6,3513.3,2534.6z"/>
				<g>
					
						<linearGradient id="SVGID_41_" gradientUnits="userSpaceOnUse" x1="2467.7354" y1="2118.093" x2="2539.9915" y2="2034.2244" gradientTransform="matrix(0.8782 0.4783 -0.4783 0.8782 2242.9177 -340.9625)">
						<stop  offset="0" style="stop-color:#FDF53F"/>
						<stop  offset="1" style="stop-color:#D93C65"/>
					</linearGradient>
					<circle class="st43" cx="3502.7" cy="2659.6" r="53.9"/>
					
						<linearGradient id="SVGID_42_" gradientUnits="userSpaceOnUse" x1="2580.821" y1="1973.0535" x2="2367.1577" y2="2295.8379" gradientTransform="matrix(0.8782 0.4783 -0.4783 0.8782 2242.9177 -340.9625)">
						<stop  offset="0" style="stop-color:#FDF53F"/>
						<stop  offset="1" style="stop-color:#D93C65"/>
					</linearGradient>
					<circle class="st44" cx="3502.7" cy="2659.6" r="52.1"/>
					<g>
						<path class="st2" d="M3532.9,2625.6c-0.7,0-1.5-0.2-2.1-0.7c-2.1-1.7-4.4-3.2-6.7-4.5c-14.9-8.1-32.9-7.2-46.8,2.5
							c-1.5,1.1-3.6,0.7-4.7-0.9c-1.1-1.5-0.7-3.6,0.9-4.7c16.1-11.1,36.7-12.2,53.9-2.9c2.7,1.5,5.3,3.2,7.7,5.2
							c1.4,1.2,1.7,3.3,0.5,4.7C3534.9,2625.1,3533.9,2625.6,3532.9,2625.6z"/>
					</g>
					
						<ellipse transform="matrix(0.3678 -0.9299 0.9299 0.3678 -259.9316 4939.9053)" class="st42" cx="3503.1" cy="2661.1" rx="44.1" ry="44.1"/>
					<g>
						
							<linearGradient id="SVGID_43_" gradientUnits="userSpaceOnUse" x1="2574.4468" y1="1982.3029" x2="2460.677" y2="2173.3037" gradientTransform="matrix(0.8782 0.4783 -0.4783 0.8782 2242.9177 -340.9625)">
							<stop  offset="0" style="stop-color:#FDF53F"/>
							<stop  offset="1" style="stop-color:#D93C65"/>
						</linearGradient>
						<path class="st45" d="M3483.6,2687.8l2.3-4.2c-4.3-2.6-8.1-6-10.4-9c-0.8-1.1-0.7-2.6,0.2-3.6l3.2-3.3
							c1.2-1.2,3.1-1.1,4.2,0.2c2.4,2.9,5.6,6,9.7,8.2c4.2,2.3,8.2,2.6,9.8-0.4c1.4-2.7-0.1-5.6-5.2-10.3
							c-7.1-6.9-11.2-13.8-7.1-21.2c3.6-6.7,11.3-9.1,20.5-5.9l2.3-4.2c0.7-1.4,2.4-1.9,3.8-1.1l2.5,1.3c1.4,0.7,1.9,2.4,1.1,3.8
							l-2.1,3.8c4,2.4,6.6,4.7,8.4,6.8c1,1.1,0.9,2.7-0.1,3.8l-3,3.1c-1.1,1.2-3.1,1.1-4.1-0.1c-1.7-2-4.3-4.5-8.3-6.7
							c-5-2.7-7.6-1.4-8.6,0.4c-1.2,2.3,0.9,5.5,6.3,11.1c7.8,7.9,9.6,13.8,5.8,20.8c-3.5,6.4-11.3,9.5-21.3,6l-2.6,4.7
							c-0.7,1.4-2.4,1.9-3.8,1.1l-2.5-1.3C3483.4,2690.9,3482.9,2689.2,3483.6,2687.8z"/>
					</g>
				</g>
				
					<linearGradient id="SVGID_44_" gradientUnits="userSpaceOnUse" x1="2526.3569" y1="1686.8303" x2="2608.4263" y2="1992.7238" gradientTransform="matrix(0.8782 0.4783 -0.4783 0.8782 2242.9177 -340.9625)">
					<stop  offset="0" style="stop-color:#CB236D"/>
					<stop  offset="1" style="stop-color:#4C246D"/>
				</linearGradient>
				<path class="st46" d="M3596.7,2483.3c-1.4-0.8-2.3-2.4-2.1-4.1c2-18.5,18-30.9,31.1-38.1c4-2.2,8.1-4.2,12.1-6.1
					c10.2-5,19.9-9.6,27.5-17c12-11.6,17.5-29.6,14-45.8c-1.5-7-13.3-20.4-27.3-20.6c-12.2-0.2-35.2,10-52.2,80.2
					c-0.5,2.2-2.8,3.6-5,3c-2.2-0.5-3.6-2.8-3-5c17.5-71.9,42.5-86.7,60.4-86.5c18,0.2,32.9,16.2,35.3,27.1c4.1,19-2.3,40-16.3,53.5
					c-8.6,8.3-19.3,13.5-29.6,18.5c-3.9,1.9-8,3.9-11.8,6c-9.3,5.1-25.1,16-26.8,31.7c-0.2,2.3-2.3,3.9-4.6,3.7
					C3597.7,2483.7,3597.2,2483.6,3596.7,2483.3z"/>
			</g>
			<linearGradient id="SVGID_45_" gradientUnits="userSpaceOnUse" x1="3380.946" y1="2274.4487" x2="3652.3176" y2="2274.4487">
				<stop  offset="0" style="stop-color:#A737D5"/>
				<stop  offset="1" style="stop-color:#EF497A"/>
			</linearGradient>
			<path class="st47" d="M3387.7,2389.5c-3.6,0-6.6-2.9-6.7-6.5c-0.1-2-1.4-50.6,13.1-102.3c19.6-70,59-111.4,113.9-119.9
				c27.3-4.2,51.6,2.2,72.2,19.2c65.6,54.1,71.9,196.5,72.1,202.6c0.1,3.7-2.7,6.8-6.4,6.9c-3.6,0.1-6.8-2.7-7-6.4
				c-0.1-1.4-6.3-142.5-67.2-192.8c-17.5-14.4-38.2-19.9-61.6-16.3c-120.2,18.6-115.8,206.7-115.7,208.6c0.1,3.7-2.8,6.8-6.5,6.9
				C3387.8,2389.5,3387.8,2389.5,3387.7,2389.5z"/>
		</g>
		<g>
			<g>
				
					<linearGradient id="SVGID_46_" gradientUnits="userSpaceOnUse" x1="8321.29" y1="2643.3533" x2="7781.7275" y2="3230.2461" gradientTransform="matrix(1 0 0 1 -6594.6953 0)">
					<stop  offset="0" style="stop-color:#2B3582"/>
					<stop  offset="1" style="stop-color:#150E42"/>
				</linearGradient>
				<path class="st48" d="M1556,2687.1c0,0-5.6,31.6-8.3,62.9c-1.1,12.2,8.4,22.9,20.6,23.4c41.7,1.7,130.9,5.1,162.9,3.7
					c4.8-0.2,8-5.1,6.2-9.6l0,0c-1.5-3.8-4.4-6.8-8-8.5l-147.3-67.7L1556,2687.1z"/>
				
					<linearGradient id="SVGID_47_" gradientUnits="userSpaceOnUse" x1="8146.1548" y1="2686.9431" x2="8194.0811" y2="2686.9431" gradientTransform="matrix(1 0 0 1 -6594.6953 0)">
					<stop  offset="0" style="stop-color:#F9B776"/>
					<stop  offset="1" style="stop-color:#F47960"/>
				</linearGradient>
				<path class="st49" d="M1551.5,2668.5l4.5,37.8c0,0,25.8,12,43.4-1.5l-10.7-42.2L1551.5,2668.5z"/>
				
					<linearGradient id="SVGID_48_" gradientUnits="userSpaceOnUse" x1="8059.3306" y1="2644.3291" x2="8165.2319" y2="2029.0923" gradientTransform="matrix(1 0 0 1 -6594.6953 0)">
					<stop  offset="0" style="stop-color:#2B3582"/>
					<stop  offset="1" style="stop-color:#150E42"/>
				</linearGradient>
				<path class="st50" d="M1554.8,1957.1c-1.9,9.9-10.4,493.1,41.2,709.6c0.8,3.5-0.9,7.2-4.3,8.5c-7.9,3.2-23.5,7.9-42.1,8.6
					c-5.8,0.2-10.9-3.6-12.6-9.1c-14.8-50.2-85.5-302-94.7-542.4c-10.3-268.7,0-9.1,0-9.1l6-166.1L1554.8,1957.1z"/>
				
					<linearGradient id="SVGID_49_" gradientUnits="userSpaceOnUse" x1="8200.2451" y1="2532.075" x2="7660.688" y2="3118.9622" gradientTransform="matrix(1 0 0 1 -6594.6953 0)">
					<stop  offset="0" style="stop-color:#2B3582"/>
					<stop  offset="1" style="stop-color:#150E42"/>
				</linearGradient>
				<path class="st51" d="M1386.5,2703.6c0,0-8.9,16-17.5,58.4c-1.6,7.7,3.8,15,11.6,15.8c13.8,1.4,35,3.1,51.9,3
					c7.8-0.1,13.9-6.9,13-14.6c-1.9-15.5-7.7-40.9-25.8-60.7L1386.5,2703.6z"/>
				
					<linearGradient id="SVGID_50_" gradientUnits="userSpaceOnUse" x1="7973.4282" y1="2684.4854" x2="8014.8086" y2="2684.4854" gradientTransform="matrix(1 0 0 1 -6594.6953 0)">
					<stop  offset="0" style="stop-color:#F9B776"/>
					<stop  offset="1" style="stop-color:#F47960"/>
				</linearGradient>
				<path class="st52" d="M1378.7,2654.9l10.5,57.2c0,0,10.4,7.7,30.9,2.1l-5-61.6L1378.7,2654.9z"/>
				
					<linearGradient id="SVGID_51_" gradientUnits="userSpaceOnUse" x1="7939.5815" y1="2623.7161" x2="8045.4834" y2="2008.4789" gradientTransform="matrix(1 0 0 1 -6594.6953 0)">
					<stop  offset="0" style="stop-color:#2B3582"/>
					<stop  offset="1" style="stop-color:#150E42"/>
				</linearGradient>
				<path class="st53" d="M1350.4,1971.9c-42.2,254.9,9.2,630.1,26.5,703.6c1.1,4.5,4.7,7.9,9.2,8.7c7.7,1.3,20.5,2.3,33-1.3
					c4.3-1.3,7.4-5.2,7.5-9.7c2.3-59.4-1.9-423.8,37.5-567.9c2-7.3,6.5-13.7,12.6-18.1l76.4-54.3l5.9-87.8L1350.4,1971.9z"/>
				<g>
					<linearGradient id="SVGID_52_" gradientUnits="userSpaceOnUse" x1="1677.7258" y1="1473.2144" x2="1203.053" y2="2064.0295">
						<stop  offset="0" style="stop-color:#53D8FF"/>
						<stop  offset="1" style="stop-color:#3840F7"/>
					</linearGradient>
					<path class="st54" d="M1619.6,1488.9c-126.6-2.1-266.3,33.2-266.3,33.2c-37.7,220.2-6.6,474.2-6.6,474.2
						c98,25.7,208.6-15.7,208.6-15.7c16.3-92,92.3-351,92.3-351c61.9-7.7,112.8-25.5,154.8-49.1c-32-37.1-47.1-84.3-53.7-112.2
						C1703.9,1482.1,1658.6,1489.5,1619.6,1488.9z"/>
					
						<linearGradient id="SVGID_53_" gradientUnits="userSpaceOnUse" x1="8343.3721" y1="1436.5995" x2="8588.2197" y2="1436.5995" gradientTransform="matrix(1 0 0 1 -6594.6953 0)">
						<stop  offset="0" style="stop-color:#F9B776"/>
						<stop  offset="1" style="stop-color:#F47960"/>
					</linearGradient>
					<path class="st55" d="M1993.5,1302.4c-12.4-15-28.2-7.9-28.2-7.9c-18.6,78.7-116.3,142.5-216.7,173.7
						c6.6,27.9,21.6,75.1,53.7,112.2C1968.9,1486.7,1993.5,1302.4,1993.5,1302.4z"/>
				</g>
				<g>
					
						<linearGradient id="SVGID_54_" gradientUnits="userSpaceOnUse" x1="3230.9448" y1="1395.5581" x2="3395.2449" y2="1769.3776" gradientTransform="matrix(-1 0 0 1 5169.9258 0)">
						<stop  offset="0" style="stop-color:#F9B776"/>
						<stop  offset="1" style="stop-color:#F47960"/>
					</linearGradient>
					<path class="st56" d="M1990.5,1306.2c1.3,4.1-13.8,10.4-22.6-6.5c-0.3-8.1-5.2-42.8-0.4-49.5c25.8-35.2,75.8-79.3,75.8-79.3
						c8.5,8.3,1.5,16.5,1.5,16.5l-24.3,25.3c5.1,9.2,11.3,16.9,14.2,28c2.2,8.4,0.9,17.4-3.4,25c-4.3,7.7-10.1,17.7-15.6,25.5
						C2005.3,1306.1,1990.5,1306.2,1990.5,1306.2z"/>
					
						<linearGradient id="SVGID_55_" gradientUnits="userSpaceOnUse" x1="8587.0459" y1="1271.0626" x2="8655.6006" y2="1165.6598" gradientTransform="matrix(1 0 0 1 -6594.6953 0)">
						<stop  offset="0" style="stop-color:#F9B776"/>
						<stop  offset="1" style="stop-color:#F47960"/>
					</linearGradient>
					<path class="st57" d="M2009.9,1229.2l-22.1,18.7l-6.9,18.7l19.7,21.9c0,0,6.6-37,11.6-45.1
						C2017.1,1235.4,2014.5,1231.6,2009.9,1229.2z"/>
				</g>
				<linearGradient id="SVGID_56_" gradientUnits="userSpaceOnUse" x1="1542.587" y1="1364.6409" x2="1067.9164" y2="1955.4532">
					<stop  offset="0" style="stop-color:#53D8FF"/>
					<stop  offset="1" style="stop-color:#3840F7"/>
				</linearGradient>
				<path class="st58" d="M1401.8,1644.7l-48.6-122.6c0,0-118.3,80.3-137.7,182.2c22.3,1.6,59.8,7.8,99.6,27.9
					C1333.2,1691.8,1401.8,1644.7,1401.8,1644.7z"/>
				
					<linearGradient id="SVGID_57_" gradientUnits="userSpaceOnUse" x1="8045.522" y1="1452.1639" x2="8168.0283" y2="1452.1639" gradientTransform="matrix(1 0 0 1 -6594.6953 0)">
					<stop  offset="0" style="stop-color:#F9B776"/>
					<stop  offset="1" style="stop-color:#F47960"/>
				</linearGradient>
				<path class="st59" d="M1491.3,1386.1l-40.3,116.5c-0.7,1.9,0.1,4.1,1.9,5.1c11,6.1,50.5,23.6,98.2-6.6c5-3.1,8.3-8.3,9.1-14.1
					l13-100.8H1491.3z"/>
				<g>
					
						<linearGradient id="SVGID_58_" gradientUnits="userSpaceOnUse" x1="693.8682" y1="3111.103" x2="648.0886" y2="2960.1111" gradientTransform="matrix(0.746 -0.6659 0.6659 0.746 -986.8381 -484.6094)">
						<stop  offset="0" style="stop-color:#F9B776"/>
						<stop  offset="1" style="stop-color:#F47960"/>
					</linearGradient>
					<path class="st60" d="M1579,1278.2c0,0,44.2,83.3,38.6,116.9c-5.7,33.6-60.5,31.2-108.4,3.9l-33.5-89.9L1579,1278.2z"/>
					
						<linearGradient id="SVGID_59_" gradientUnits="userSpaceOnUse" x1="8956.3076" y1="-6463.7856" x2="9332.75" y2="-6893.5581" gradientTransform="matrix(0.746 -0.6659 0.6659 0.746 -986.8381 -484.6094)">
						<stop  offset="0" style="stop-color:#2B3582"/>
						<stop  offset="1" style="stop-color:#150E42"/>
					</linearGradient>
					<path class="st61" d="M1511.3,1354.9c1.9-0.9,2.7-3.2,1.5-5c-3.5-5.4-10.2-16.5-12.3-26.1c0,0-8-5.1,20.2-11.8
						c28.2-6.7,70.2-17.2,79.1-41.2c8.6-23.4-14-82.2-50.1-35.4c-1.4,1.8-4.1,1.8-5.4,0c-5.9-7.7-21.5-23.7-43.1-14
						c-20.2,9.1-22.5,23.9-22.2,31.4c0.1,2.2-1.9,3.9-4,3.5c-10.2-1.9-34.8-3.6-46.2,21.5c-9.4,20.7-3.3,32.5,2.3,38.2
						c1.8,1.9,1,4.9-1.5,5.7c-6.7,2.1-15.4,7.8-14.5,23.5c1.2,21.8,25.5,19.8,32.5,18.9c1.1-0.2,2.3,0.2,3,1.1
						c5.9,6.6,32.7,34.5,61.7,37.9c2.5,0.3,4.5-2.2,3.6-4.6l-12.5-36.4c-0.6-1.7,0.2-3.5,1.9-4.3L1511.3,1354.9z"/>
					
						<linearGradient id="SVGID_60_" gradientUnits="userSpaceOnUse" x1="647.0707" y1="3110.4011" x2="605.8815" y2="2974.5491" gradientTransform="matrix(0.746 -0.6659 0.6659 0.746 -986.8381 -484.6094)">
						<stop  offset="0" style="stop-color:#F9B776"/>
						<stop  offset="1" style="stop-color:#F47960"/>
					</linearGradient>
					<path class="st62" d="M1516.3,1360c0,0-31.5-21.6-33.8-3.4c-2.3,18.2,28.4,26.4,43.5,19.6L1516.3,1360z"/>
				</g>
				<g>
					
						<linearGradient id="SVGID_61_" gradientUnits="userSpaceOnUse" x1="8311.1934" y1="2733.7869" x2="8336.9268" y2="2013.2554" gradientTransform="matrix(1 0 0 1 -6594.6953 0)">
						<stop  offset="0" style="stop-color:#9CFFFB"/>
						<stop  offset="1" style="stop-color:#9BFFFA"/>
					</linearGradient>
					<path class="st63" d="M1763.3,2389.5c-4.2,0-7.9-3-8.7-7.2l-57.4-308.1c-0.9-4.8,2.3-9.4,7.1-10.3c4.8-0.9,9.4,2.3,10.3,7.1
						l57.4,308.1c0.9,4.8-2.3,9.4-7.1,10.3C1764.4,2389.4,1763.8,2389.5,1763.3,2389.5z"/>
					
						<linearGradient id="SVGID_62_" gradientUnits="userSpaceOnUse" x1="8522.2002" y1="2741.3245" x2="8547.9326" y2="2020.7933" gradientTransform="matrix(1 0 0 1 -6594.6953 0)">
						<stop  offset="0" style="stop-color:#9CFFFB"/>
						<stop  offset="1" style="stop-color:#9BFFFA"/>
					</linearGradient>
					<path class="st64" d="M2170.8,2400.9h-471.9c-9.7,0-17.6-7.9-17.6-17.6c0-9.7,7.9-17.6,17.6-17.6h460.3l119.2-275.6h-680.9
						c-9.7,0-17.6-7.9-17.6-17.6c0-9.7,7.9-17.6,17.6-17.6h707.8c5.9,0,11.5,3,14.7,8c3.3,5,3.8,11.2,1.4,16.7L2187,2390.3
						C2184.2,2396.8,2177.8,2400.9,2170.8,2400.9z"/>
					<g>
						
							<linearGradient id="SVGID_63_" gradientUnits="userSpaceOnUse" x1="8336.4395" y1="2734.689" x2="8362.1719" y2="2014.1582" gradientTransform="matrix(1 0 0 1 -6594.6953 0)">
							<stop  offset="0" style="stop-color:#9CFFFB"/>
							<stop  offset="1" style="stop-color:#9BFFFA"/>
						</linearGradient>
						<path class="st65" d="M2139.5,2709.5h-371.8c-8.1,0-15.3-5.3-17.6-13.1l-221.4-738.8H1374c-10.1,0-18.4-8.2-18.4-18.4
							c0-10.1,8.2-18.4,18.4-18.4h168.4c8.1,0,15.3,5.3,17.6,13.1l221.4,738.8h358.1c10.1,0,18.4,8.2,18.4,18.4
							C2157.8,2701.3,2149.6,2709.5,2139.5,2709.5z"/>
					</g>
					<g>
						
							<linearGradient id="SVGID_64_" gradientUnits="userSpaceOnUse" x1="8317.2285" y1="2737.02" x2="8409.0352" y2="2737.02" gradientTransform="matrix(1 0 0 1 -6594.6953 0)">
							<stop  offset="0" style="stop-color:#53D8FF"/>
							<stop  offset="1" style="stop-color:#3840F7"/>
						</linearGradient>
						<circle class="st66" cx="1768.4" cy="2737" r="45.9"/>
						
							<linearGradient id="SVGID_65_" gradientUnits="userSpaceOnUse" x1="8328.7041" y1="2737.0203" x2="8395.0088" y2="2737.0203" gradientTransform="matrix(1 0 0 1 -6594.6953 0)">
							<stop  offset="0" style="stop-color:#2B3582"/>
							<stop  offset="1" style="stop-color:#150E42"/>
						</linearGradient>
						<path class="st67" d="M1800.3,2737c0,18.3-14.8,33.2-33.2,33.2c-18.3,0-33.2-14.8-33.2-33.2c0-18.3,14.8-33.2,33.2-33.2
							C1785.5,2703.9,1800.3,2718.7,1800.3,2737z"/>
					</g>
					<g>
						
							<linearGradient id="SVGID_66_" gradientUnits="userSpaceOnUse" x1="8664.5635" y1="2737.02" x2="8756.3701" y2="2737.02" gradientTransform="matrix(1 0 0 1 -6594.6953 0)">
							<stop  offset="0" style="stop-color:#53D8FF"/>
							<stop  offset="1" style="stop-color:#3840F7"/>
						</linearGradient>
						<circle class="st68" cx="2115.8" cy="2737" r="45.9"/>
						
							<linearGradient id="SVGID_67_" gradientUnits="userSpaceOnUse" x1="8676.0391" y1="2737.0203" x2="8742.3438" y2="2737.0203" gradientTransform="matrix(1 0 0 1 -6594.6953 0)">
							<stop  offset="0" style="stop-color:#2B3582"/>
							<stop  offset="1" style="stop-color:#150E42"/>
						</linearGradient>
						<path class="st69" d="M2147.6,2737c0,18.3-14.8,33.2-33.2,33.2c-18.3,0-33.2-14.8-33.2-33.2c0-18.3,14.8-33.2,33.2-33.2
							C2132.8,2703.9,2147.6,2718.7,2147.6,2737z"/>
					</g>
					
						<linearGradient id="SVGID_68_" gradientUnits="userSpaceOnUse" x1="8415.2393" y1="2737.5051" x2="8440.9727" y2="2016.973" gradientTransform="matrix(1 0 0 1 -6594.6953 0)">
						<stop  offset="0" style="stop-color:#9CFFFB"/>
						<stop  offset="1" style="stop-color:#9BFFFA"/>
					</linearGradient>
					<path class="st70" d="M1841.7,2390.9c-4.8,0-8.7-3.8-8.8-8.6l-6.1-305.3c-0.1-4.9,3.8-8.9,8.6-9c5-0.2,8.9,3.8,9,8.6l6.1,305.3
						c0.1,4.9-3.8,8.9-8.6,9C1841.9,2390.9,1841.8,2390.9,1841.7,2390.9z"/>
					
						<linearGradient id="SVGID_69_" gradientUnits="userSpaceOnUse" x1="8507.7764" y1="2740.8091" x2="8533.5088" y2="2020.2795" gradientTransform="matrix(1 0 0 1 -6594.6953 0)">
						<stop  offset="0" style="stop-color:#9CFFFB"/>
						<stop  offset="1" style="stop-color:#9BFFFA"/>
					</linearGradient>
					<path class="st71" d="M1931.4,2389.5c-4.9,0-8.8-3.9-8.8-8.8v-303.9c0-4.9,3.9-8.8,8.8-8.8c4.9,0,8.8,3.9,8.8,8.8v303.9
						C1940.2,2385.5,1936.2,2389.5,1931.4,2389.5z"/>
					
						<linearGradient id="SVGID_70_" gradientUnits="userSpaceOnUse" x1="8613.6934" y1="2744.5933" x2="8639.4258" y2="2024.0603" gradientTransform="matrix(1 0 0 1 -6594.6953 0)">
						<stop  offset="0" style="stop-color:#9CFFFB"/>
						<stop  offset="1" style="stop-color:#9BFFFA"/>
					</linearGradient>
					<path class="st72" d="M2036.4,2388.1C2036.4,2388.1,2036.4,2388.1,2036.4,2388.1c-4.9,0-8.9-4-8.8-8.9l2.1-302.5
						c0-4.9,4-8.8,8.8-8.8c0,0,0,0,0.1,0c4.9,0,8.8,4,8.8,8.9l-2.1,302.5C2045.2,2384.2,2041.2,2388.1,2036.4,2388.1z"/>
					
						<linearGradient id="SVGID_71_" gradientUnits="userSpaceOnUse" x1="8709.4609" y1="2748.0107" x2="8735.1934" y2="2027.4791" gradientTransform="matrix(1 0 0 1 -6594.6953 0)">
						<stop  offset="0" style="stop-color:#9CFFFB"/>
						<stop  offset="1" style="stop-color:#9BFFFA"/>
					</linearGradient>
					<path class="st73" d="M2104.6,2385.5c-0.6,0-1.1-0.1-1.7-0.2c-4.8-0.9-7.9-5.6-7-10.3l57.3-295.5c0.9-4.8,5.6-7.9,10.3-7
						c4.8,0.9,7.9,5.6,7,10.3l-57.3,295.5C2112.5,2382.6,2108.8,2385.5,2104.6,2385.5z"/>
					
						<linearGradient id="SVGID_72_" gradientUnits="userSpaceOnUse" x1="8520.9893" y1="2741.2734" x2="8546.7217" y2="2020.7506" gradientTransform="matrix(1 0 0 1 -6594.6953 0)">
						<stop  offset="0" style="stop-color:#9CFFFB"/>
						<stop  offset="1" style="stop-color:#9BFFFA"/>
					</linearGradient>
					<path class="st74" d="M2273.1,2157h-651.2c-4.9,0-8.8-3.9-8.8-8.8c0-4.9,3.9-8.8,8.8-8.8h651.2c4.9,0,8.8,3.9,8.8,8.8
						C2281.9,2153.1,2277.9,2157,2273.1,2157z"/>
					
						<linearGradient id="SVGID_73_" gradientUnits="userSpaceOnUse" x1="8519.2891" y1="2741.2268" x2="8545.0225" y2="2020.6887" gradientTransform="matrix(1 0 0 1 -6594.6953 0)">
						<stop  offset="0" style="stop-color:#9CFFFB"/>
						<stop  offset="1" style="stop-color:#9BFFFA"/>
					</linearGradient>
					<path class="st75" d="M2233.9,2246.6h-582.6c-4.9,0-8.8-3.9-8.8-8.8c0-4.9,3.9-8.8,8.8-8.8h582.6c4.9,0,8.8,3.9,8.8,8.8
						C2242.7,2242.7,2238.7,2246.6,2233.9,2246.6z"/>
					
						<linearGradient id="SVGID_74_" gradientUnits="userSpaceOnUse" x1="8513.8457" y1="2741.0249" x2="8539.5791" y2="2020.4945" gradientTransform="matrix(1 0 0 1 -6594.6953 0)">
						<stop  offset="0" style="stop-color:#9CFFFB"/>
						<stop  offset="1" style="stop-color:#9BFFFA"/>
					</linearGradient>
					<path class="st76" d="M2194.6,2329.3h-521c-4.9,0-8.8-3.9-8.8-8.8c0-4.9,3.9-8.8,8.8-8.8h521c4.9,0,8.8,3.9,8.8,8.8
						C2203.5,2325.3,2199.5,2329.3,2194.6,2329.3z"/>
				</g>
				
					<linearGradient id="SVGID_75_" gradientUnits="userSpaceOnUse" x1="8060.4966" y1="1956.6713" x2="7808.2705" y2="1754.8906" gradientTransform="matrix(1 0 0 1 -6594.6953 0)">
					<stop  offset="0" style="stop-color:#F9B776"/>
					<stop  offset="1" style="stop-color:#F47960"/>
				</linearGradient>
				<path class="st77" d="M1216.4,1705.3c0,0-80.8,184.1,116.7,211l26.9-22.5c0,0-98.8-53.9-44.9-161.6
					C1315.2,1732.3,1256.8,1682.9,1216.4,1705.3z"/>
				
					<linearGradient id="SVGID_76_" gradientUnits="userSpaceOnUse" x1="8052.3174" y1="1966.8959" x2="7800.0918" y2="1765.1155" gradientTransform="matrix(1 0 0 1 -6594.6953 0)">
					<stop  offset="0" style="stop-color:#F9B776"/>
					<stop  offset="1" style="stop-color:#F47960"/>
				</linearGradient>
				<path class="st78" d="M1360.1,1893.9h71.8c0,0,44.9,58.4,40.4,71.8c-4.5,13.5-48.9,2.8-48.9,2.8l-23-38.7
					c0,0-67.4,4.5-67.4-13.5C1333.2,1898.4,1360.1,1893.9,1360.1,1893.9z"/>
			</g>
			<g>
				<path class="st2" d="M1579.6,1274.5c-0.3,0-0.5-0.1-0.7-0.3c-0.3-0.4-0.2-0.9,0.2-1.2c6-4.5,9.3-10,10-16.3
					c1.4-13.6-10-26.8-10.1-26.9c-0.3-0.4-0.3-0.9,0.1-1.2c0.4-0.3,0.9-0.3,1.2,0.1c0.5,0.6,12,13.9,10.5,28.2
					c-0.7,6.8-4.3,12.7-10.7,17.5C1579.9,1274.5,1579.8,1274.5,1579.6,1274.5z"/>
			</g>
		</g>
		<g>
			<g>
				<linearGradient id="SVGID_77_" gradientUnits="userSpaceOnUse" x1="1823.8628" y1="299.9214" x2="3646.7986" y2="-1275.5779">
					<stop  offset="0" style="stop-color:#53D8FF"/>
					<stop  offset="1" style="stop-color:#3840F7"/>
				</linearGradient>
				<path class="st79" d="M1953.4-0.9c-7.5,0-14.4,2.8-18.4,9.1c-83.9,132.4-167.8,269.5-251.7,396.2c82.5,0,164.9,0,247.4,0
					c64.5-126.6,129.1-267.8,193.6-405.2C2067.4-0.9,2010.4-0.9,1953.4-0.9z"/>
				<linearGradient id="SVGID_78_" gradientUnits="userSpaceOnUse" x1="2119.27" y1="215.4833" x2="2132.2668" y2="691.1578">
					<stop  offset="0" style="stop-color:#CB236D"/>
					<stop  offset="1" style="stop-color:#4C246D"/>
				</linearGradient>
				<path class="st80" d="M2178.1,407.4c-82.5,0-164.9,0-247.4,0c64.5-135.8,129.1-271.6,193.6-407.4c61,0,121.9,0,182.9,0
					C2264.2,135.8,2221.1,271.6,2178.1,407.4z"/>
				<g>
					<linearGradient id="SVGID_79_" gradientUnits="userSpaceOnUse" x1="2008.1992" y1="513.2082" x2="3831.1379" y2="-1062.2935">
						<stop  offset="0" style="stop-color:#53D8FF"/>
						<stop  offset="1" style="stop-color:#3840F7"/>
					</linearGradient>
					<path class="st81" d="M2425.5,407.4c-82.5,0-164.9,0-247.4,0c43-135.8,86.1-271.6,129.1-407.4c61,0,121.9,0,182.9,0
						C2468.5,135.8,2447,271.6,2425.5,407.4z"/>
				</g>
				<linearGradient id="SVGID_80_" gradientUnits="userSpaceOnUse" x1="2549.5188" y1="215.5776" x2="2562.6277" y2="695.3553">
					<stop  offset="0" style="stop-color:#CB236D"/>
					<stop  offset="1" style="stop-color:#4C246D"/>
				</linearGradient>
				<path class="st82" d="M2672.9,407.4c-82.5,0-164.9,0-247.4,0c21.5-135.8,43-271.6,64.5-407.4c61,0,121.9,0,182.9,0
					C2672.9,135.8,2672.9,271.6,2672.9,407.4z"/>
				<g>
					<linearGradient id="SVGID_81_" gradientUnits="userSpaceOnUse" x1="2192.1614" y1="726.0636" x2="4015.0967" y2="-849.4351">
						<stop  offset="0" style="stop-color:#53D8FF"/>
						<stop  offset="1" style="stop-color:#3840F7"/>
					</linearGradient>
					<path class="st83" d="M2920.3,407.4c-82.5,0-164.9,0-247.4,0c0-135.8,0-271.6,0-407.4c61,0,121.9,0,182.9,0
						C2877.3,135.8,2898.8,271.6,2920.3,407.4z"/>
				</g>
				<linearGradient id="SVGID_82_" gradientUnits="userSpaceOnUse" x1="3012.0142" y1="214.7908" x2="3025.2354" y2="698.6719">
					<stop  offset="0" style="stop-color:#CB236D"/>
					<stop  offset="1" style="stop-color:#4C246D"/>
				</linearGradient>
				<path class="st84" d="M3167.7,407.4c-82.5,0-164.9,0-247.4,0c-21.5-135.8-43-271.6-64.5-407.4c61,0,121.9,0,182.9,0
					C3081.6,135.8,3124.6,271.6,3167.7,407.4z"/>
				<g>
					<linearGradient id="SVGID_83_" gradientUnits="userSpaceOnUse" x1="2973.2954" y1="616.1251" x2="3690.3496" y2="-550.3511">
						<stop  offset="0" style="stop-color:#53D8FF"/>
						<stop  offset="1" style="stop-color:#3840F7"/>
					</linearGradient>
					<path class="st85" d="M3415.1,407.4c-82.5,0-164.9,0-247.4,0c-43-135.8-86.1-271.6-129.1-407.4c61,0,121.9,0,182.9,0
						C3286,135.8,3350.5,271.6,3415.1,407.4z"/>
				</g>
				<linearGradient id="SVGID_84_" gradientUnits="userSpaceOnUse" x1="3442.2612" y1="212.8327" x2="3455.5271" y2="698.356">
					<stop  offset="0" style="stop-color:#CB236D"/>
					<stop  offset="1" style="stop-color:#4C246D"/>
				</linearGradient>
				<path class="st86" d="M3410.7,8.1c-4-6.3-10.9-9.1-18.4-9.1c-57,0-113.9,0-170.9,0c64.5,137.5,129.1,278.6,193.6,405.2
					c82.5,0,164.9,0,247.4,0C3578.5,277.7,3494.6,140.5,3410.7,8.1z"/>
			</g>
			<g>
				<linearGradient id="SVGID_85_" gradientUnits="userSpaceOnUse" x1="2275.8728" y1="-654.4623" x2="1584.0656" y2="971.5366">
					<stop  offset="0" style="stop-color:#53D8FF"/>
					<stop  offset="1" style="stop-color:#3840F7"/>
				</linearGradient>
				<path class="st87" d="M1679.8,404.3v70.6c0,58.8,59.7,103.1,127.8,103.1h2.7c68.1,0,122.8-44.3,122.8-103.1v-70.6H1679.8z"/>
				<linearGradient id="SVGID_86_" gradientUnits="userSpaceOnUse" x1="2292.5122" y1="-855.6713" x2="1897.8383" y2="1297.0862">
					<stop  offset="0" style="stop-color:#CB236D"/>
					<stop  offset="1" style="stop-color:#4C246D"/>
				</linearGradient>
				<path class="st88" d="M1933,404.3v70.6c0,58.8,52.7,103.1,119.6,103.1h2.6c67,0,120.2-44.3,120.2-103.1v-70.6H1933z"/>
			</g>
			<g>
				<linearGradient id="SVGID_87_" gradientUnits="userSpaceOnUse" x1="2694.1819" y1="-476.4855" x2="2002.3743" y2="1149.5142">
					<stop  offset="0" style="stop-color:#53D8FF"/>
					<stop  offset="1" style="stop-color:#3840F7"/>
				</linearGradient>
				<path class="st89" d="M2175.5,404.3v70.6c0,58.8,58.3,103.1,126.5,103.1h2.7c68.1,0,120.5-44.3,120.5-103.1v-70.6H2175.5z"/>
				<linearGradient id="SVGID_88_" gradientUnits="userSpaceOnUse" x1="2770.3267" y1="-768.0726" x2="2375.6536" y2="1384.6802">
					<stop  offset="0" style="stop-color:#CB236D"/>
					<stop  offset="1" style="stop-color:#4C246D"/>
				</linearGradient>
				<path class="st90" d="M2425.1,404.3v70.6c0,58.8,54.9,103.1,121.9,103.1h2.6c67,0,121.5-44.3,121.5-103.1v-70.6H2425.1z"/>
			</g>
			<g>
				<linearGradient id="SVGID_89_" gradientUnits="userSpaceOnUse" x1="3112.4983" y1="-298.5063" x2="2420.6914" y2="1327.4921">
					<stop  offset="0" style="stop-color:#53D8FF"/>
					<stop  offset="1" style="stop-color:#3840F7"/>
				</linearGradient>
				<path class="st91" d="M2671.2,404.3v70.6c0,58.8,57,103.1,125.1,103.1h2.7c68.1,0,118.3-44.3,118.3-103.1v-70.6H2671.2z"/>
				<linearGradient id="SVGID_90_" gradientUnits="userSpaceOnUse" x1="3248.1418" y1="-680.4728" x2="2853.4668" y2="1472.2909">
					<stop  offset="0" style="stop-color:#CB236D"/>
					<stop  offset="1" style="stop-color:#4C246D"/>
				</linearGradient>
				<path class="st92" d="M2917.2,404.3v70.6c0,58.8,57.1,103.1,124.1,103.1h2.6c67,0,122.9-44.3,122.9-103.1v-70.6H2917.2z"/>
			</g>
			<g>
				<linearGradient id="SVGID_91_" gradientUnits="userSpaceOnUse" x1="3648.2449" y1="-389.119" x2="2956.438" y2="1236.8793">
					<stop  offset="0" style="stop-color:#53D8FF"/>
					<stop  offset="1" style="stop-color:#3840F7"/>
				</linearGradient>
				<path class="st93" d="M3166.9,404.3v70.6c0,58.8,55.6,103.1,123.7,103.1h2.7c68.1,0,123.3-44.3,123.3-103.1v-70.6H3166.9z"/>
				<linearGradient id="SVGID_92_" gradientUnits="userSpaceOnUse" x1="3727.7532" y1="-592.5442" x2="3333.0781" y2="1560.219">
					<stop  offset="0" style="stop-color:#CB236D"/>
					<stop  offset="1" style="stop-color:#4C246D"/>
				</linearGradient>
				<path class="st94" d="M3416.5,404.3v70.6c0,58.8,52.2,103.1,119.1,103.1h2.6c67,0,120.7-44.3,120.7-103.1v-70.6H3416.5z"/>
			</g>
		</g>
	</g>
</g>
</svg>
